<svg width="120" height="120" viewBox="0 0 120 120" xmlns="http://www.w3.org/2000/svg" role="img" aria-label="Tarot BPJS logo">
  <defs>
    <linearGradient id="glow" x1="0" y1="0" x2="1" y2="1">
      <stop offset="0%" stop-color="#c18eff" />
      <stop offset="100%" stop-color="#76e0ff" />
    </linearGradient>
    <filter id="soft-glow" x="-20%" y="-20%" width="140%" height="140%">
      <feGaussianBlur stdDeviation="3" result="blur" />
      <feMerge>
        <feMergeNode in="blur" />
        <feMergeNode in="SourceGraphic" />
      </feMerge>
    </filter>
  </defs>
  <rect x="14" y="14" width="92" height="92" rx="22" fill="#15204f" stroke="url(#glow)" stroke-width="5" filter="url(#soft-glow)" />
  <path d="M40 84C40 72 48 64 60 64 72 64 80 72 80 84" fill="none" stroke="#f8f4ff" stroke-width="3" stroke-linecap="round" />
  <path d="M60 22C68 22 74 28 74 36 74 44 68 50 60 50 52 50 46 44 46 36 46 28 52 22 60 22Z" fill="#c18eff" opacity="0.18" />
  <circle cx="60" cy="36" r="10" fill="none" stroke="#f8f4ff" stroke-width="3" />
  <path d="M53 34L57 38M67 34L63 38M60 24L60 28" stroke="#f8f4ff" stroke-width="2" stroke-linecap="round" />
  <path d="M42 46L38 42M78 46L82 42M44 74L40 78M76 74L80 78" stroke="#76e0ff" stroke-width="2" stroke-linecap="round" />
  <path d="M37 32L45 42M83 32L75 42" stroke="#c18eff" stroke-width="2" stroke-linecap="round" />
  <path d="M24 58L32 62M96 58L88 62" stroke="#f8f4ff" stroke-width="2" stroke-linecap="round" />
</svg>
